<?xml version="1.0" standalone="no"?>
<!DOCTYPE svg PUBLIC "-//W3C//DTD SVG 20010904//EN"
 "http://www.w3.org/TR/2001/REC-SVG-20010904/DTD/svg10.dtd">
<svg version="1.0" xmlns="http://www.w3.org/2000/svg"
 width="700.000000pt" height="700.000000pt" viewBox="0 0 700.000000 700.000000"
 preserveAspectRatio="xMidYMid meet">
<metadata>
Created by potrace 1.11, written by Peter Selinger 2001-2013
</metadata>
<g transform="translate(0.000000,700.000000) scale(0.100000,-0.100000)"
fill="#000000" stroke="none">
<path d="M596 6558 c-145 -13 -280 -75 -388 -176 -66 -62 -148 -177 -148 -206
0 -8 -4 -17 -9 -20 -5 -4 -19 -46 -30 -95 -21 -88 -21 -91 -21 -2567 1 -2762
-5 -2533 72 -2693 87 -182 288 -328 491 -357 42 -6 5832 -6 5874 0 269 39 511
272 552 531 3 22 6 1167 6 2545 0 2437 -1 2507 -19 2565 -63 197 -208 357
-386 428 -134 52 16 50 -3050 51 -1576 1 -2900 -2 -2944 -6z m1552 -446 c36
-20 42 -53 41 -210 -1 -151 -10 -193 -44 -206 -9 -3 -385 -6 -836 -6 l-820 0
-24 25 c-27 26 -28 35 -26 163 1 92 19 139 70 188 65 61 46 60 867 59 592 0
754 -3 772 -13z m4287 -9 c47 -25 86 -65 110 -113 16 -32 18 -77 17 -545 0
-280 -1 -526 -1 -546 -1 -21 -10 -46 -22 -60 l-21 -24 -3001 -2 c-2011 -1
-3011 1 -3028 8 -49 19 -52 38 -52 316 0 142 3 268 7 281 18 54 -13 52 1014
52 l949 0 204 308 c112 169 210 313 217 320 7 8 24 17 38 21 14 4 814 6 1778
6 l1751 -1 40 -21z m-2775 -1627 c312 -29 634 -162 880 -364 93 -77 222 -214
293 -313 125 -174 245 -450 273 -624 3 -22 8 -43 10 -47 25 -40 24 -497 -1
-570 -2 -7 -6 -29 -9 -48 -9 -58 -44 -176 -81 -270 -123 -311 -358 -594 -645
-780 -170 -109 -422 -205 -625 -237 -162 -25 -420 -20 -575 12 -226 47 -445
142 -629 273 -97 69 -271 232 -333 312 -36 45 -128 179 -128 184 0 2 -18 36
-40 76 -52 94 -102 221 -133 340 -43 157 -52 235 -52 425 0 135 8 253 20 287
2 7 6 29 9 48 8 54 42 166 81 265 138 354 416 666 755 848 182 97 400 163 610
183 36 4 66 7 67 8 5 4 189 -2 253 -8z"/>
<path d="M3377 4043 c-2 -1 -32 -7 -69 -12 -574 -92 -1005 -594 -1010 -1176 0
-68 8 -180 16 -220 52 -255 157 -456 331 -631 243 -246 543 -368 890 -359 316
8 589 126 815 354 197 199 311 433 345 706 50 412 -130 835 -465 1092 -166
127 -362 210 -565 239 -45 6 -283 12 -288 7z m227 -352 c126 -72 151 -232 54
-340 -47 -51 -66 -58 -221 -76 -154 -18 -296 -136 -352 -294 -8 -23 -18 -77
-21 -119 -4 -43 -14 -93 -24 -112 -90 -175 -340 -158 -404 27 -15 47 -12 147
9 244 18 83 19 86 30 114 107 281 323 478 605 554 96 25 109 27 205 26 63 -1
88 -6 119 -24z"/>
</g>
</svg>
